<?xml version="1.0" encoding="UTF-8"?>
<svg width="158px" height="190px" viewBox="0 0 158 190" version="1.1" xmlns="http://www.w3.org/2000/svg" xmlns:xlink="http://www.w3.org/1999/xlink">
    <defs></defs>
    <g id="krm-onboarding" stroke="none" stroke-width="1" fill="none" fill-rule="evenodd" transform="translate(-641.000000, -326.000000)">
        <g transform="translate(450.000000, 326.000000)">
            <g transform="translate(188.000000, 0.000000)">
                <g transform="translate(76.000000, 0.000000)">
                    <g>
                        <path d="M5.58203125,94.5117187 L5.58203125,6.04630186" id="Path-2" stroke-opacity="0.304913949" stroke="#000000" stroke-dasharray="3,3" transform="translate(5.582031, 50.279010) scale(-1, 1) translate(-5.582031, -50.279010) "></path>
                        <circle fill="#9da3ae" cx="6" cy="6" r="6"></circle>
                    </g>
                    <g transform="translate(6.000000, 142.500000) scale(1, -1) translate(-6.000000, -142.500000) translate(0.000000, 95.000000)">
                        <path d="M5.58203125,94.5117187 L5.58203125,6.04630186" id="Path-2" stroke-opacity="0.304913949" stroke="#000000" stroke-dasharray="3,3" transform="translate(5.582031, 50.279010) scale(-1, 1) translate(-5.582031, -50.279010) "></path>
                        <circle fill="#9da3ae" cx="6" cy="6" r="6"></circle>
                    </g>
                    <circle fill="#9da3ae" cx="6" cy="95" r="6"></circle>
                </g>
                <g transform="translate(82.000000, 95.000000) rotate(55.000000) translate(-82.000000, -95.000000) translate(76.000000, 0.000000)">
                    <g>
                        <path d="M5.58203125,94.5117187 L5.58203125,6.04630186" id="Path-2" stroke-opacity="0.304913949" stroke="#000000" stroke-dasharray="3,3" transform="translate(5.582031, 50.279010) scale(-1, 1) translate(-5.582031, -50.279010) "></path>
                        <circle fill="#9da3ae" cx="6" cy="6" r="6"></circle>
                    </g>
                    <g transform="translate(6.000000, 142.500000) scale(1, -1) translate(-6.000000, -142.500000) translate(0.000000, 95.000000)">
                        <path d="M5.58203125,94.5117187 L5.58203125,6.04630186" id="Path-2" stroke-opacity="0.304913949" stroke="#000000" stroke-dasharray="3,3" transform="translate(5.582031, 50.279010) scale(-1, 1) translate(-5.582031, -50.279010) "></path>
                        <circle fill="#9da3ae" cx="6" cy="6" r="6"></circle>
                    </g>
                    <circle fill="#9da3ae" cx="6" cy="95" r="6"></circle>
                </g>
                <g transform="translate(82.000000, 95.000000) scale(-1, 1) rotate(55.000000) translate(-82.000000, -95.000000) translate(76.000000, 0.000000)">
                    <g id="Group-2">
                        <path d="M5.58203125,94.5117187 L5.58203125,6.04630186" id="Path-2" stroke-opacity="0.304913949" stroke="#000000" stroke-dasharray="3,3" transform="translate(5.582031, 50.279010) scale(-1, 1) translate(-5.582031, -50.279010) "></path>
                        <circle fill="#9da3ae" cx="6" cy="6" r="6"></circle>
                    </g>
                    <g transform="translate(6.000000, 142.500000) scale(1, -1) translate(-6.000000, -142.500000) translate(0.000000, 95.000000)">
                        <path d="M5.58203125,94.5117187 L5.58203125,6.04630186" id="Path-2" stroke-opacity="0.304913949" stroke="#000000" stroke-dasharray="3,3" transform="translate(5.582031, 50.279010) scale(-1, 1) translate(-5.582031, -50.279010) "></path>
                        <circle id="Oval-Copy-2" fill="#9da3ae" cx="6" cy="6" r="6"></circle>
                    </g>
                    <circle fill="#9da3ae" cx="6" cy="95" r="6"></circle>
                </g>
            </g>
        </g>
    </g>
</svg>
